<svg xmlns="http://www.w3.org/2000/svg" id="Layer_1" x="0" y="0" enable-background="new 0 0 550 550" version="1.1" viewBox="0 0 550 550" xml:space="preserve"><rect width="450" height="6.7" x="50" y="484.7" fill="#efe8ce"/><path fill="#f4e1d0" d="M451.7,486.1c-0.4,0-0.7-0.3-0.7-0.7c0-0.4,0.3-0.7,0.7-0.7c0.4,0,0.7,0.3,0.7,0.7
												C452.4,485.8,452.1,486.1,451.7,486.1z"/><path fill="#f4e1d0" d="M461.8,486.1c-0.4,0-0.7-0.3-0.7-0.7c0-0.4,0.3-0.7,0.7-0.7c0.4,0,0.7,0.3,0.7,0.7
												C462.5,485.8,462.2,486.1,461.8,486.1z"/><path fill="#f4e1d0" d="M456.8,486.1c-0.4,0-0.7-0.3-0.7-0.7c0-0.4,0.3-0.7,0.7-0.7c0.4,0,0.7,0.3,0.7,0.7
												C457.4,485.8,457.1,486.1,456.8,486.1z"/><path fill="#f4e1d0" d="M446.7,486.1c-0.4,0-0.7-0.3-0.7-0.7c0-0.4,0.3-0.7,0.7-0.7c0.4,0,0.7,0.3,0.7,0.7
												C447.4,485.8,447.1,486.1,446.7,486.1z"/><path fill="#f4e1d0" d="M471.9,484.8c0.4,0,0.7,0.3,0.7,0.7c0,0.4-0.3,0.7-0.7,0.7c-0.4,0-0.7-0.3-0.7-0.7
												C471.2,485.1,471.5,484.8,471.9,484.8z"/><path fill="#f4e1d0" d="M466.8,486.1c-0.4,0-0.7-0.3-0.7-0.7c0-0.4,0.3-0.7,0.7-0.7c0.4,0,0.7,0.3,0.7,0.7
												C467.5,485.8,467.2,486.1,466.8,486.1z"/><g><path fill="#f4e1d0" d="M421.5,486.1c-0.4,0-0.7-0.3-0.7-0.7c0-0.4,0.3-0.7,0.7-0.7c0.4,0,0.7,0.3,0.7,0.7
												C422.2,485.8,421.9,486.1,421.5,486.1z"/><path fill="#f4e1d0" d="M431.6,486.1c-0.4,0-0.7-0.3-0.7-0.7c0-0.4,0.3-0.7,0.7-0.7c0.4,0,0.7,0.3,0.7,0.7
												C432.2,485.8,431.9,486.1,431.6,486.1z"/><path fill="#f4e1d0" d="M426.5,486.1c-0.4,0-0.7-0.3-0.7-0.7c0-0.4,0.3-0.7,0.7-0.7c0.4,0,0.7,0.3,0.7,0.7
												C427.2,485.8,426.9,486.1,426.5,486.1z"/><path fill="#f4e1d0" d="M416.5,486.1c-0.4,0-0.7-0.3-0.7-0.7c0-0.4,0.3-0.7,0.7-0.7c0.4,0,0.7,0.3,0.7,0.7
												C417.1,485.8,416.8,486.1,416.5,486.1z"/><path fill="#f4e1d0" d="M441.6,484.8c0.4,0,0.7,0.3,0.7,0.7c0,0.4-0.3,0.7-0.7,0.7c-0.4,0-0.7-0.3-0.7-0.7
												C441,485.1,441.3,484.8,441.6,484.8z"/><path fill="#f4e1d0" d="M436.6,486.1c-0.4,0-0.7-0.3-0.7-0.7c0-0.4,0.3-0.7,0.7-0.7c0.4,0,0.7,0.3,0.7,0.7
												C437.3,485.8,437,486.1,436.6,486.1z"/></g><g><polygon fill="#003567" points="271.5 483.6 265.9 483.6 220.8 363.1 170.8 483.6 166.5 483.6 187.8 304.3 187.9 304.3 264.1 300.3"/><path fill="#022e4f" d="M271.5,483.6h-1.1l-22.3-158.5c-34.8,0.4-48.1-9.9-60.2-20.8l76.1-4L271.5,483.6z"/><path fill="#022e4f" d="M266.3,483.6h-0.4l-45.1-120.4l-50,120.4l45.1-126.8l-7.9-8.1c0,0,28.4,4.9,30.7-1.7l-11.3,16
													L266.3,483.6z"/><path fill="#e4ecf9" d="M201.4,301h62.1c-0.9-6.3-0.6-18.6-0.9-21.3c-0.1-1.1-0.3-2.2-0.4-3.3c-0.3-2-0.6-4-0.9-6
																		c0-0.1,0-0.2,0-0.3h-0.5v-3c-0.1-0.5-0.1-1-0.2-1.5c-0.7-4.7-1.4-9.1-1.9-12.9c-0.1-0.7-0.1-1.3-0.2-1.9
																		c-0.1-1-0.2-1.9-0.2-2.7c0-0.3,0-0.6,0-0.9c-0.1-1.7,0-3.1,0.3-4c0.1-0.3,0.2-0.6,0.4-0.8v-49.2
																		c-0.1-0.1-0.2-0.2-0.4-0.3c-2-1.6-4-2.8-6-3.4c-1.5-0.4-3.1-0.9-4.8-1.3c-1.2-0.3-2.5-0.6-3.7-0.9
																		c-0.8-0.2-1.6-0.3-2.5-0.5c-0.8-0.2-2.2-0.4-3-0.6c-0.6-0.1-1.6-0.3-4.2-0.7c-0.1,0-0.3,0-0.4-0.1
																		c-0.3,0-0.4-0.1-1.3-0.2c-8.9-1.1-18.7-1.3-28.4,0.4c-1.4,0.2-5.1,1.1-6.5,1.5c-1.1,0.3-2.3,0.7-3.4,1.1
																		c-6.6,2.2-12.9,5.6-18.8,10.4l-0.9,0.8c-1.7,1.5-3.4,2.9-5.1,4.4c-1.4,1.2-2.7,2.5-4,3.7c-1.3,1.2-2.5,2.5-3.7,3.7
																		c-16.7,16.8-27.3,33.1-27.3,33.1s13,14.2,18.9,19.9c0.2,0.2,0.3,0.3,0.5,0.5c1.2,1.2,2.1,1.9,2.3,1.9
																		c0,0,0-0.1,0.1-0.1c0.4-0.5,2-2.3,4.3-4.6c5.7-5.9,15.3-15.3,20.6-16.2c0.5-0.1,1-0.1,1.4,0c0.1,0,0.1,0,0.2,0
																		c0.4,0.1,0.8,0.3,1.1,0.7c0.2,0.2,0.3,0.4,0.5,0.8c0.5,1.1,0.8,2.9,1,5.2c0.1,0.6,0.1,1.2,0.1,1.9
																		c0,0.2,0,0.5,0,0.7c0,0.5,0,1,0.1,1.5c0,0.3,0,0.5,0,0.8c0,0.2,0,0.4,0,0.7c0,0.1,0,0.3,0,0.4c0,0.6,0,1.3,0,1.9
																		c0,13.4-1.2,32.7,1.8,42.9c0.3,1,0.6,1.9,1,2.6c0.4,0.2,0.8,0.4,1.4,0.7c1.9,0.8,4.7,1.5,8,2.1
																		c1.1,0.2,2.3,0.4,3.5,0.6V301z"/><path fill="#e4ecf9" d="M201.4,301h59.3l-1.8-46.9c-0.1-0.5-0.1-0.9-0.2-1.4c-0.1-0.7-0.1-1.3-0.2-1.9
																		c-0.1-1-0.2-1.9-0.2-2.7c0-0.3,0-0.6,0-0.9c-0.1-1.7,0-3.1,0.3-4c0.1-0.3,0.2-0.5,0.3-0.7V193
																		c-0.1-0.1-0.2-0.1-0.3-0.2c-6.4-3.6-13.5-6-21.4-7c-0.6-0.1-1.1-0.1-1.7-0.2c-0.6-0.1-2.2-0.2-2.8-0.3
																		c-0.5,0-1-0.1-1.5-0.1c-0.2,0-0.5,0-0.7,0c-10.4-0.4-20.5,1.3-29.5,3.9h0c-0.1,0-0.2,0.1-0.4,0.1
																		c-1.1,0.3-2.1,0.6-3.1,0.9c-0.3,0.1-0.6,0.2-0.9,0.3c-0.6,0.2-1.1,0.4-1.6,0.5c-0.4,0.1-0.9,0.3-1.3,0.4
																		c-0.8,0.3-1.6,0.6-2.4,0.8c-3,1.1-5.7,2.2-8.1,3.3c-6,2.7-10.9,11.2-13.7,17.2c-1.5,3.1-2.9,6.5-4.2,10
																		c-0.1,0.4-0.3,0.7-0.4,1.1c-0.6,1.6-1.2,3.3-1.8,4.9c-5.2,15.4-8.6,31.1-9.5,35.5c-0.1,0.7-0.2,1.1-0.2,1.2
																		c0.2-0.3,0.5-0.5,0.7-0.7c2-1.9,4.2-2.7,6.5-2.9c0.1,0,0.2,0,0.2,0c5.7-5.9,15.3-15.3,20.6-16.2
																		c0.5-0.1,1-0.1,1.4,0c0.1,0,0.1,0,0.2,0c0.4,0.1,0.8,0.3,1.1,0.7c0.2,0.2,0.3,0.4,0.5,0.8c0.5,1.1,0.8,2.9,1,5.2
																		c0.1,0.8,0.1,1.7,0.2,2.6c0,0.5,0,1,0.1,1.5c0,0.3,0,0.5,0,0.8c0,0.2,0,0.4,0,0.7c0,0.1,0,0.3,0,0.4v0.4
																		c0,0.5,0,1,0,1.5c0,9.5-0.6,22.1,0.1,32.2c0.3,4.1,0.8,7.8,1.7,10.7c0.3,1,0.6,1.9,1,2.6c0.4,0.2,0.8,0.4,1.4,0.7
																		c1.9,0.8,4.7,1.5,8,2.1c1.1,0.2,2.3,0.4,3.5,0.6V301z"/><path fill="#d1dcf8" d="M164.7,223.9c-0.6,1.6-1.2,3.3-1.8,4.9c-5.2,15.4-8.6,31.1-9.5,35.5
																		c-5.9-5.7-18.9-19.9-18.9-19.9s10.6-16.3,27.3-33.1c0.1,2.4,0.4,4.8,1,7.1C163.2,220.3,163.9,222.1,164.7,223.9z"/><path fill="#d1dcf8" d="M191.9,229c-0.1,9.9-2.2,19.7-6.2,28.8c0-0.2,0-0.4,0-0.7c0-0.3,0-0.5,0-0.8
																		c0-0.5,0-1-0.1-1.5c0-0.9-0.1-1.8-0.2-2.6c-0.2-2.3-0.5-4.1-1-5.2c-0.1-0.3-0.3-0.6-0.5-0.8
																		c-0.3-0.3-0.7-0.6-1.1-0.7c-0.1,0-0.1,0-0.2,0c-0.4-0.1-0.9-0.1-1.4,0c-5.3,0.9-14.9,10.3-20.6,16.2
																		c-0.1,0-4.3,4.8-4.4,4.8c-2.3,0.1-0.3-3.8-2.3-1.9c-0.2,0.2-0.5,0.5-0.7,0.7c0-0.1,0.1-0.5,0.2-1.2
																		c0.9-4.4,4.3-20.1,9.5-35.5c0.6-1.7,1.1-3.3,1.8-4.9c2.1,4.4,5.3,8.2,9.7,10.2C180.5,236.8,188.8,234.9,191.9,229z
																		"/><path fill="#ffab90" d="M233.9,185.5c-4.8,8.8-11.3,18.5-15.2,18.2c-3.7-0.4-10.3-10.3-14.8-18.2l1.2-16.2h29.1
																		L233.9,185.5z"/><path fill="#022e4f" d="M135.2,238.1c-8.3,4.6-9,16.3-4.3,24.9c4.7,8.6,13.2,10.9,21.5,6.3s11.2-15.3,6.5-23.9
																			S143.5,233.5,135.2,238.1z"/><path fill="#fec9ac" d="M105.1,211.3l-0.3,0.3c-4.3-4.2-13.2-8.9-9.6-3.6c3.6,5.3,7.3,7.9,7.3,7.9s-0.1,0.8-0.7,0.4
																				c-2.3-1.5-8.6-6-6.7-1.5c1.4,3.3,4.8,6.3,8.4,8.5c2.4,1.5,4.9,2.7,7,3.5c0.1,0,0.2,0.1,0.2,0.1
																				c0.6,0.3,1.2,0.8,1.9,1.4c5.8,5.7,15.1,24.5,20.2,34.7c5.1,10,21.5,8,25.3-3.6c0.6-1.8,0.9-3.9,0.7-6.1
																				c-0.9-16.8-30.8-24.4-37.7-32.2c-2.6-2.9-3.1-13.4-3.4-15.3c-0.4-1.9-3.4-3.3-3.4-0.2c0.1,3,0,10.4-5.9,3.8
																				c-5.9-6.6-8.6-8.6-9.5-6.7C97.9,204.5,104.4,209.9,105.1,211.3z"/><path fill="#ffab90" d="M122.6,240c-2.9-4.3-6.1-8.5-10.1-11.7c5.8,5.7,15.1,24.5,20.2,34.7c5.1,10,21.5,8,25.3-3.6
																				c-0.7,0.9-1.4,1.7-2.3,2.4c-2.5,2-5.9,2.9-9.1,2.6c-4.4-0.5-8.3-3.3-11.4-6.6C130.3,252.5,126.7,246.1,122.6,240
																				z"/><path fill="#ffab90" d="M103.5,223.3c2.4,1.5,4.9,2.7,7,3.5c0.1,0,0.2,0.1,0.2,0.1c-1.1-0.7-2.2-1.4-3.4-2
																				C106.1,224.2,104.8,223.7,103.5,223.3z"/><g><path fill="#e4ecf9" d="M305.6,201.8v30.1l-47,5.9l-4.5-47.8C268.1,191.3,288.6,197.4,305.6,201.8z"/></g><g><path fill="#d1dcf8" d="M264.2,300.9c0,0.2,0,0.4-0.1,0.6c-0.3,1.8-0.7,3.4-1.3,4.7c-0.6,1.1-1.3,2.1-2.3,2.7
															c-0.9,0.6-2.1,1.2-3.6,1.6c-8,2.6-53.4-1.1-59.1-2.1c-3.3-0.6-6.1-1.3-8-2.1c-0.5-0.2-1-0.4-1.4-0.7
															c-0.4-0.8-0.7-1.7-1-2.6c-3-10.2-1.8-29.5-1.8-42.9c4,7.4,11.3,13.1,19.5,15.3c10.8,3,22.6,0.4,32.1-5.5
															c8.9-5.5,15.8-13.7,20.9-22.8C258.5,258.6,265.9,287.5,264.2,300.9z"/></g><g><path fill="#d1dcf8" d="M193.2,274.5c-0.9,6.4-3.5,12.6-7.4,17.8c-0.7-10.1-0.1-22.7-0.1-32.2c0-0.5,0-1,0-1.5l6-28.8
														c0.6,10.2,1.1,20.5,1.7,30.7C193.6,265.2,193.8,269.9,193.2,274.5z"/></g><g><path fill="#022e4f" d="M322.1,212.5c2.4,8.2-4.4,16.1-12.9,18.6s-15.3-1.3-17.7-9.5c-2.4-8.2,2.4-16.8,10.9-19.3
														S319.7,204.4,322.1,212.5z"/><path fill="#fec9ac" d="M349,215.2c0,4.3-3.8,5.5-8,6.1c-12.8,1.8-25.4,6.1-33,8.7c-9.5,3.2-18.8-8.4-13.9-18.2
															c0.8-1.5,2.6-3.6,4.1-5C309.2,196.8,332.1,215.2,349,215.2z"/><path fill="#fec9ac" d="M338.2,217.6l10.3-0.1c0-0.6,0.1-1.2,0.3-1.6c0-0.1,0.1-0.2,0.1-0.2c0.8-1.8,1.7-4.2,2.3-6.6
															c0.9-3.7,1.2-7.8,0-10.7c-1.6-4-2.8,2.8-3.3,5.2c-0.1,0.6-0.7,0.2-0.7,0.2s0.7-3.9-0.3-9.6c-1-5.7-3.8,2.9-3.9,8.3
															l-0.4,0c-0.4-1.3,0.3-8.8-1.5-9.5c-1.8-0.6-2.3,2.3-1.9,10.3c0.4,8-4.2,3.3-6.1,1.3c-1.9-2-3,0.8-2,2.3
															C331.8,208.1,337,213.9,338.2,217.6z"/><path fill="#ffab90" d="M329,221.7c4.5-0.9,9.2-1.6,13.8-1.2c-7.3,0-25,6.2-34.7,9.5c-9.5,3.2-18.8-8.4-13.9-18.2
															c-0.1,1-0.2,2,0,3c0.4,2.9,1.9,5.6,4.2,7.3c3.2,2.5,7.4,3.1,11.4,2.9C316.2,224.9,322.6,223,329,221.7z"/></g><g><path fill="#022e4f" d="M205,195.4c-9.7-0.8-17.8,3.5-22.1,9.3c-1.4-1-3-1.9-4.6-2.6c5-7.1,14.2-12.4,25.3-12.1
											C204.2,191.8,204.7,193.6,205,195.4z"/></g><g><path fill="#022e4f" d="M254.2,196.8c-6.7-4.6-14.4-4.9-20-2.5c-0.6-1.3-1.3-2.6-2.2-3.8c6.7-3.1,15.5-3,23.5,1.9
											C255.2,193.9,254.7,195.4,254.2,196.8z"/></g><g><path fill="#bbcaea" d="M192.5,225.3v12.3c0,0.5,0.3,0.9,0.7,1.1l7.3,3.2c0.3,0.1,0.7,0.1,1,0l7.3-3.2
												c0.4-0.2,0.7-0.6,0.7-1.1v-12.3c0-0.7-0.5-1.2-1.2-1.2h-14.6C193,224.1,192.5,224.6,192.5,225.3z"/><path fill="#d1dcf8" d="M210.1,222.4v5c0,0.8-0.4,1.4-1.1,1.7l-7.2,3.2c-0.5,0.2-1,0.2-1.5,0l-7.2-3.2
												c-0.7-0.3-1.1-1-1.1-1.7v-5c0-0.3,0.3-0.6,0.6-0.6h17C209.8,221.8,210.1,222.1,210.1,222.4z"/><g><circle cx="201" cy="229.9" r="1.2" fill="#bbcaea"/></g></g><g><path fill="#bbcaea" d="M230.2,225.3v12.3c0,0.5,0.3,0.9,0.7,1.1l7.3,3.2c0.3,0.1,0.7,0.1,1,0l7.3-3.2
												c0.4-0.2,0.7-0.6,0.7-1.1v-12.3c0-0.7-0.5-1.2-1.2-1.2h-14.6C230.8,224.1,230.2,224.6,230.2,225.3z"/><path fill="#d1dcf8" d="M247.8,222.4v5c0,0.8-0.4,1.4-1.1,1.7l-7.2,3.2c-0.5,0.2-1,0.2-1.5,0l-7.2-3.2
												c-0.7-0.3-1.1-1-1.1-1.7v-5c0-0.3,0.3-0.6,0.6-0.6h17C247.6,221.8,247.8,222.1,247.8,222.4z"/><g><circle cx="238.8" cy="229.9" r="1.2" fill="#bbcaea"/></g></g><g><path fill="#fec9ac" d="M190.8,149c0,0,7.5,9.3,9.2,13.7s2.9,10.2,4.3,11c1.4,0.8,33.1,6.8,33.4,0.8
												c0.3-6,2.6-49.7-4.8-56.1s-26.4-3.9-27.6-2C204.2,118.3,190.7,141,190.8,149z"/><path fill="#c16244" d="M208.3,157.2c0,0,0-0.1,0-0.2C208.3,157.1,208.3,157.2,208.3,157.2z"/><path fill="#c16244" d="M236.1,125c0,0-5.3-11.2-17.9-8.6c-12.7,2.6-13.7,4.4-12.4,5.4c1.1,0.8,2.4,3.2,3.1,5.1
												c0.1,0.3,0.2,0.6,0.3,0.9c0.4,1.8-0.7,26.6-0.8,29.2c-0.1-2.3-3.7-11.3-7-11.8c0,0-7.7-0.4-6,5
												c1.7,5.4,6.8,10.9,4.7,12.4c-0.5,0.3-18.6-27.4-15.7-38.8c2.9-11.4,9.7-8.8,9.7-8.8s0.1-0.1,0.2-0.3
												c1.4-1.9,9.2-11.2,23.5-8.6c15.9,2.9,17.9-7.8,19.4-6.4C238.7,101.1,240,122.8,236.1,125z"/><path fill="#ffab90" d="M198,152.5c-0.2-1.1-0.2-2.3,0.2-3.3c0.4-1,1.4-1.9,2.5-2c0.8-0.1,1.6,0.3,2.3,0.8
												c0.6,0.5,1.1,1.1,1.6,1.8c-0.6-0.6-1.4-0.9-2.2-0.8c-0.8,0.1-1.5,0.6-1.9,1.3c-0.5,0.9-0.4,2-0.3,3
												c0.1,0.9,0.2,1.9,0.3,2.8c0.1,0.6,0.1,1.4-0.6,0.8c-0.6-0.4-0.9-1.3-1.1-1.9C198.4,154.2,198.1,153.4,198,152.5z"/><g><path fill="#c16244" d="M208.3,157.2c0,0,0-0.1,0-0.2C208.3,157.1,208.3,157.2,208.3,157.2z"/></g><g><path fill="#b24d32" d="M208.3,157c-0.1-2.3-3.7-11.3-7-11.8c0,0-7.7-0.4-6,5c1.7,5.4,6.8,10.9,4.7,12.4
											c-0.5,0.3-18.6-27.4-15.7-38.8c2.9-11.4,9.7-8.8,9.7-8.8s0.1-0.1,0.2-0.3c0,0,0,0,0,0c2.4,0.7,4.6,2,6,4
											c1.2,1.8,1.6,4.1,3.1,5.5c1.5,1.4,3.6,1.7,5.4,2.5c0.1,0.3,0.2,0.6,0.3,0.9C209.5,129.6,208.4,154.4,208.3,157z"/></g><g><ellipse cx="232.2" cy="142.7" fill="#2d282a" rx="1.9" ry="2.7" transform="rotate(-8.748 232.08 142.708)"/><ellipse cx="216.9" cy="143.1" fill="#2d282a" rx="1.9" ry="2.7" transform="rotate(-8.748 216.83 143.091)"/><path fill="#ffab90" d="M225.5,155.9c-1.6-0.3-3.3-1-4-1.3c-0.3-0.1-0.4-0.4-0.3-0.6c0.1-0.2,0.4-0.3,0.7-0.2
													c2.2,0.9,4.9,1.6,5.6,1.3c0.4-0.9-1.3-7.3-3.3-13c-0.1-0.2,0.1-0.5,0.3-0.6c0.3-0.1,0.6,0.1,0.6,0.3c0,0,1.1,3.2,2,6.5
													c2,6.9,1.3,7.3,0.9,7.6C227.6,156.2,226.6,156.1,225.5,155.9z M227.5,155.1L227.5,155.1L227.5,155.1z"/><g><path fill="#2d282a" d="M236.9,136.6c-0.3-0.5-0.7-1-1.2-1.4c-1.6-1.2-5.3-3.2-6.1-2.2c-1,1.2-0.6,2.1,0.6,2.6
											c1.1,0.5,6.5,2,6.8,1.8C237.2,137.3,237.2,137.1,236.9,136.6z"/></g><g><path fill="#2d282a" d="M211.6,136.9c0.4-0.5,0.9-0.9,1.4-1.2c1.7-1,5.7-2.4,6.3-1.3c0.8,1.4,0.3,2.2-0.9,2.5
											c-1.2,0.3-6.7,1.1-7,0.8C211.3,137.5,211.2,137.3,211.6,136.9z"/></g></g></g><g><rect width="10.6" height="74" x="100.8" y="163" fill="#c16244"/><rect width="10.6" height="74" x="103.1" y="163" fill="#d38060"/><circle cx="108.4" cy="145.4" r="43.8" fill="#fe4c40"/><path fill="#544c4a" d="M69.9,145.4c0-23.3,18.2-42.4,41.2-43.7c-0.9-0.1-1.8-0.1-2.7-0.1c-24.2,0-43.8,19.6-43.8,43.8
												s19.6,43.8,43.8,43.8c0.9,0,1.8,0,2.7-0.1C88.1,187.7,69.9,168.7,69.9,145.4z"/><path fill="#fe4c40" d="M152.2,145.4c0,1.4-0.1,2.8-0.2,4.1c-2,21.4-19.4,38.3-41,39.6c-23-1.4-41.2-20.4-41.2-43.7
												c0-10.7,3.9-20.6,10.3-28.2c7.5-8.9,18.5-14.8,30.9-15.5C134,103,152.2,122,152.2,145.4z"/><g><path fill="#ea241f" d="M152,149.5c-2,21.4-19.4,38.3-41,39.6c-23-1.4-41.2-20.4-41.2-43.7c0-10.7,3.9-20.6,10.3-28.2
										c-3.8,10.3-2.9,22.4,2.8,31.9c7.3,12.2,22.2,19.3,36.3,17.5c12.2-1.6,22.6-9.1,32.3-16.7
										C151.7,149.8,151.8,149.6,152,149.5z"/></g><g><path fill="#fff" d="M82.2,158.4c-1.1-0.5-2-1.1-2.8-2L81,150c0.7,0.7,1.4,1.3,2.3,1.8c0.8,0.4,1.6,0.7,2.4,0.7
										c0.7,0,1.1-0.1,1.4-0.4c0.3-0.2,0.4-0.6,0.4-1.1c0-0.6-0.2-1-0.6-1.2c-0.4-0.3-1-0.6-1.8-0.9c-1.1-0.4-2-0.9-2.7-1.4
										c-0.7-0.5-1.4-1.3-1.9-2.4c-0.5-1.1-0.8-2.6-0.8-4.5c0-1.7,0.2-3.2,0.8-4.5c0.5-1.4,1.2-2.4,2.2-3.2c1-0.8,2.2-1.2,3.6-1.2
										c1,0,1.9,0.2,2.9,0.6c0.9,0.4,1.8,1,2.5,1.7l-1.4,6.4c-1.4-1.3-2.7-2-4-2c-1.2,0-1.8,0.6-1.8,1.7c0,0.5,0.2,0.9,0.5,1.2
										c0.4,0.3,1,0.5,1.8,0.8c1.1,0.4,2,0.8,2.7,1.3c0.7,0.5,1.4,1.3,1.9,2.4c0.5,1.1,0.8,2.6,0.8,4.5c0,1.7-0.2,3.2-0.8,4.5
										c-0.5,1.3-1.2,2.4-2.2,3.2c-1,0.8-2.2,1.2-3.6,1.2C84.5,159.2,83.3,158.9,82.2,158.4z"/><path fill="#fff" d="M98.4,139.1h-4.2v-6.9h13.1v6.9h-4.2v19.5h-4.8V139.1z"/><path fill="#fff" d="M113.6,157.4c-1.2-1.2-2.2-2.8-2.9-4.9c-0.7-2.1-1-4.5-1-7.1c0-2.6,0.3-5,1-7.1
										c0.7-2.1,1.6-3.7,2.9-4.9c1.2-1.2,2.6-1.8,4.1-1.8s2.9,0.6,4.1,1.8c1.2,1.2,2.2,2.8,2.9,4.9c0.7,2.1,1,4.5,1,7.1
										c0,2.6-0.3,5-1,7.1c-0.7,2.1-1.6,3.7-2.9,4.9c-1.2,1.2-2.6,1.8-4.1,1.8S114.8,158.6,113.6,157.4z M119.3,151.1
										c0.5-0.5,0.9-1.3,1.1-2.3c0.3-1,0.4-2.2,0.4-3.5c0-1.3-0.1-2.5-0.4-3.5c-0.3-1-0.7-1.8-1.1-2.3c-0.5-0.5-1-0.8-1.6-0.8
										s-1.1,0.3-1.6,0.8c-0.5,0.5-0.9,1.3-1.1,2.3s-0.4,2.2-0.4,3.5c0,1.3,0.1,2.5,0.4,3.5c0.3,1,0.7,1.8,1.1,2.3
										c0.5,0.5,1,0.8,1.6,0.8S118.8,151.7,119.3,151.1z"/><path fill="#fff" d="M139.6,133.4c1,0.8,1.7,2,2.3,3.5c0.5,1.5,0.8,3.3,0.8,5.3c0,2-0.3,3.8-0.8,5.3
										c-0.5,1.5-1.3,2.7-2.3,3.5c-1,0.8-2.1,1.2-3.4,1.2h-2.1v6.5h-4.8v-26.4h6.8C137.4,132.2,138.6,132.6,139.6,133.4z
										 M137.3,144.4c0.3-0.5,0.5-1.3,0.5-2.3c0-1-0.2-1.7-0.5-2.3c-0.3-0.5-0.8-0.8-1.5-0.8h-1.7v6.2h1.7
										C136.5,145.2,137,144.9,137.3,144.4z"/></g></g><g><path fill="#8d7ea3" d="M242.3,171.2c-5.6,1.6-7.4-4.4-7.4-4.4l-8.5-0.4l-0.2-2.8l-0.1-2c0,0,18.3-3.3,20.8-0.4
								c0.9,1,1.3,2.4,1.1,3.7C247.9,167.5,246,170.2,242.3,171.2z"/><path fill="#7e6a9d" d="M242.3,171.2c-5.6,1.6-7.4-4.4-7.4-4.4l-8.5-0.4l-0.2-2.8c3.6-0.1,7.2-0.2,10.7-0.2
								c-0.3,1,0.1,2,0.8,2.7c0.7,0.7,1.7,1.1,2.6,1.3c1.9,0.4,3.9,0.1,5.6-0.9c0.8-0.4,1.5-1,2-1.6
								C247.9,167.5,246,170.2,242.3,171.2z"/></g><g><path fill="#ffab90" d="M227.7,164c0,1.9-1.7,3.5-3.8,3.5c-0.3,0-0.7,0-1-0.1c1.6-0.4,2.8-1.7,2.8-3.3c0-1.6-1.2-2.9-2.8-3.3
							c0.3-0.1,0.6-0.1,1-0.1C226,160.5,227.7,162.1,227.7,164z"/></g><g><polygon fill="#ffcf3d" points="256.7 167.9 261.5 174.8 269.1 170.4 275.7 174.8 284 169.6 281.5 161.3 272.4 168.4 267.6 165.3 260.6 170.4"/><polygon fill="#ffcf3d" points="249.4 153.2 257.8 153.5 258.8 144.9 266.4 142.2 267.2 132.4 259.1 129.5 259.3 141 253.8 143 253.8 151.6"/><polygon fill="#ffcf3d" points="253.5 162.1 257.1 157.5 262.3 158.1 270.4 148.6 277.3 152.9 281.5 142.5 290.9 151.5 278.3 158.9 271.6 155 265.3 163.2 257.2 160"/></g><g><path fill="#d1dcf8" d="M246.3,104.4c-6.1,17.1-60.2,22.1-60.8,21.9c-0.5-0.2-6.5-0.9-9-8.8c-0.1-0.2-0.1-0.3-0.1-0.5
										c-1.5-6.9,9.9-15,12.6-16.8c0.3-0.2,0.5-0.4,0.5-0.4c11-8.7,22.4-15.7,34.6-19.4c6.1-0.6,11.4,4.8,15.3,10.6
										C243.7,97.4,246.3,104.4,246.3,104.4z"/><path fill="#bbcaea" d="M246.3,104.4c-6.1,17.1-60.2,22.1-60.8,21.9c-0.5-0.2-6.5-0.9-9-8.8c-0.1-0.2-0.1-0.3-0.1-0.5
										c2.6-1.2,4.9-3,7.4-4.2c9.6-4.3,21.3,0.7,31.1-2.9c4.5-1.7,8.2-5,11.7-8.4c3.4-3.4,6.7-7,10.9-9.5c0.6-0.4,1.2-0.7,1.8-1
										C243.7,97.4,246.3,104.4,246.3,104.4z"/><g><path fill="#022e4f" d="M241.3,110.8l-3.2,7.4l-52.6,8.1c0,0-1.8-2.2,1-5.7c0,0,20.9-4.8,24-9
									C213.7,107.4,235,104.3,241.3,110.8z"/></g><g><path fill="#003567" d="M184.4,126.7c0,0-0.5,2.9,1.5,3.4s11.7-0.3,16.4,1.4c4.8,1.7,21.4,4.8,42.9-3.8l-7.1-9.5
								C238.1,118.2,186.2,123.8,184.4,126.7z"/></g><g><path fill="#ffd964" d="M228.1,112.8c-1.6,2.5-4,4.7-7.4,5.6c0,0-13.5-5.1-8.7-18.4c0,0,0.5-0.1,1.3-0.2
								c2.6-0.3,8.9-0.6,18.5,1.2C231.9,101,231.5,107.6,228.1,112.8z"/><path fill="#ffcf3d" d="M228.1,112.8c-1.6,2.5-4,4.7-7.4,5.6c0,0-13.5-5.1-8.7-18.4c0,0,0.5-0.1,1.3-0.2
								c1.9,3.7,4.9,6.9,8.7,8.8c1.6,0.8,3.3,1.4,4.7,2.5C227.3,111.6,227.8,112.1,228.1,112.8z"/></g></g><g><path fill="#3a3331" d="M205.1,299.3c0.2,1.4-0.7,2.7-2.1,2.9l-14.7,2.2l8.4,56.3c0.2,1.4-0.7,2.7-2.1,2.9
							c-1.4,0.2-2.7-0.7-2.9-2.1l-11.5-77.5c-0.2-1.4,0.7-2.7,2.1-2.9c1.4-0.2,2.7,0.7,2.9,2.1l2.4,16.2l14.7-2.2
							C203.6,297,204.9,297.9,205.1,299.3z"/></g><g><rect width="10.1" height="18.3" x="451.9" y="466.5" fill="#ffcf3d"/><rect width="10.1" height="18.3" x="451.9" y="448.2" fill="#544c4a"/><rect width="10.1" height="18.3" x="451.9" y="429.9" fill="#ffcf3d"/><rect width="10.1" height="18.3" x="451.9" y="411.7" fill="#544c4a"/><rect width="10.1" height="18.3" x="451.9" y="393.4" fill="#ffcf3d"/><rect width="10.1" height="18.3" x="451.9" y="375.1" fill="#544c4a"/><g><rect width="10.1" height="18.3" x="451.9" y="356.8" fill="#ffcf3d"/><rect width="10.1" height="18.3" x="451.9" y="338.5" fill="#544c4a"/></g><g><rect width="10.1" height="18.3" x="451.9" y="320.3" fill="#ffcf3d"/><rect width="10.1" height="18.3" x="451.9" y="302" fill="#544c4a"/></g><g><rect width="10.1" height="18.3" x="451.9" y="283.7" fill="#ffcf3d"/><rect width="10.1" height="18.3" x="451.9" y="265.4" fill="#544c4a"/></g><g><rect width="10.1" height="18.3" x="451.9" y="320.3" fill="#ffcf3d"/><rect width="10.1" height="18.3" x="451.9" y="302" fill="#544c4a"/><rect width="10.1" height="18.3" x="451.9" y="283.7" fill="#ffcf3d"/><rect width="10.1" height="18.3" x="451.9" y="265.4" fill="#544c4a"/><rect width="10.1" height="18.3" x="451.9" y="247.2" fill="#ffcf3d"/><rect width="10.1" height="18.3" x="451.9" y="228.9" fill="#544c4a"/><g><rect width="10.1" height="18.3" x="451.9" y="210.6" fill="#ffcf3d"/><path fill="#edba3b" d="M451.9,63.7V71H462v-7.3c0-2.8-2.3-5.1-5.1-5.1l0,0C454.2,58.6,451.9,60.9,451.9,63.7z"/><rect width="10.1" height="18.3" x="451.9" y="192.3" fill="#544c4a"/></g><g><rect width="10.1" height="18.3" x="451.9" y="174" fill="#ffcf3d"/><rect width="10.1" height="18.3" x="451.9" y="155.8" fill="#544c4a"/></g><g><rect width="10.1" height="18.3" x="451.9" y="137.5" fill="#ffcf3d"/><rect width="10.1" height="18.3" x="451.9" y="119.2" fill="#544c4a"/></g><g><path fill="#544c4a" d="M499.4,82.7l-13.3,94.6c-0.7,5.1-5.1,8.9-10.2,8.9h-38c-5.1,0-9.5-3.8-10.2-8.9l-13.3-94.6
							c-0.9-6.2,3.9-11.7,10.2-11.7h64.5C495.5,71,500.3,76.5,499.4,82.7z"/><path fill="#4c4441" d="M487.4,112.3h-60.9c0-16.8,13.6-30.4,30.4-30.4C473.8,81.8,487.4,95.5,487.4,112.3z"/><path fill="#3a3331" d="M482.3,112.3h-50.7c0-14,11.4-25.3,25.4-25.3C471,86.9,482.3,98.3,482.3,112.3z"/><path fill="#ea241f" d="M476.1,112.3c0,10.5-8.5,19.1-19.1,19.1c-10.5,0-19.1-8.5-19.1-19.1c0-10.5,8.5-19.1,19.1-19.1
									C467.5,93.2,476.1,101.7,476.1,112.3z"/><path fill="#fe4c40" d="M471.9,112.3c0,8.3-6.7,15-15,15c-8.3,0-15-6.7-15-15c0-8.3,6.7-15,15-15
									C465.2,97.3,471.9,104,471.9,112.3z"/><g><path fill="#4c4441" d="M479.1,162.7h-44.2c0-12.2,9.9-22.1,22.1-22.1C469.2,140.6,479.1,150.5,479.1,162.7z"/><path fill="#3a3331" d="M475.4,162.7h-36.8c0-10.2,8.2-18.4,18.4-18.4C467.2,144.3,475.4,152.5,475.4,162.7z"/><path fill="#bbcaea" d="M470.8,162.7c0,7.7-6.2,13.9-13.9,13.9s-13.9-6.2-13.9-13.9c0-7.7,6.2-13.9,13.9-13.9
									S470.8,155,470.8,162.7z"/><path fill="#d1dcf8" d="M467.8,162.7c0,6-4.9,10.9-10.9,10.9c-6,0-10.9-4.9-10.9-10.9c0-6,4.9-10.9,10.9-10.9
									C463,151.8,467.8,156.7,467.8,162.7z"/></g></g></g></g></g></svg>